# Blender 5.0.1
# www.blender.org
mtllib Luces3.mtl
o Luces3
v 4.893432 5.730199 -7.627872
v 4.893432 5.628314 -7.627872
v 4.995317 5.730199 -7.627872
v 4.995317 5.628314 -7.627872
v 4.995317 5.730199 -7.723011
v 4.893432 5.730199 -7.723011
v 4.893432 5.628314 -7.723011
v 4.995317 5.628314 -7.723011
v 5.032286 5.730199 -7.818014
v 4.574689 5.730199 -7.818014
v 4.574689 5.628314 -7.818014
v 5.032286 5.628314 -7.818014
v 4.618931 5.358535 -7.666442
v 5.011684 5.751289 -7.666442
v 4.584280 5.393187 -7.653313
v 4.977033 5.785940 -7.653313
v 4.558915 5.418551 -7.617439
v 4.951667 5.811306 -7.617439
v 4.549630 5.427836 -7.568437
v 4.942383 5.820590 -7.568437
v 4.558914 5.418551 -7.519433
v 4.951668 5.811306 -7.519433
v 4.584280 5.393187 -7.483561
v 4.977034 5.785940 -7.483561
v 4.618931 5.358535 -7.470429
v 5.011683 5.751289 -7.470429
v 4.653581 5.323884 -7.483561
v 5.046334 5.716639 -7.483561
v 4.678947 5.298520 -7.519433
v 5.071700 5.691273 -7.519433
v 4.688232 5.289235 -7.568437
v 5.080985 5.681989 -7.568437
v 4.678946 5.298520 -7.617439
v 5.071701 5.691273 -7.617439
v 4.653581 5.323884 -7.653313
v 5.046335 5.716639 -7.653313
v -4.816226 5.730199 -7.627872
v -4.816226 5.628314 -7.627872
v -4.918111 5.730199 -7.627872
v -4.918111 5.628314 -7.627872
v -4.918111 5.730199 -7.723011
v -4.816226 5.730199 -7.723011
v -4.816226 5.628314 -7.723011
v -4.918111 5.628314 -7.723011
v -4.955081 5.730199 -7.818014
v -4.497484 5.730199 -7.818014
v -4.497483 5.628314 -7.818014
v -4.955081 5.628314 -7.818014
v -4.541725 5.358535 -7.666442
v -4.934478 5.751289 -7.666442
v -4.507075 5.393187 -7.653313
v -4.899827 5.785940 -7.653313
v -4.481709 5.418551 -7.617439
v -4.874462 5.811306 -7.617439
v -4.472424 5.427836 -7.568437
v -4.865177 5.820590 -7.568437
v -4.481709 5.418551 -7.519433
v -4.874462 5.811306 -7.519433
v -4.507074 5.393187 -7.483561
v -4.899828 5.785940 -7.483561
v -4.541725 5.358535 -7.470429
v -4.934478 5.751289 -7.470429
v -4.576375 5.323884 -7.483561
v -4.969129 5.716639 -7.483561
v -4.601741 5.298520 -7.519433
v -4.994494 5.691273 -7.519433
v -4.611026 5.289235 -7.568437
v -5.003779 5.681989 -7.568437
v -4.601741 5.298520 -7.617439
v -4.994495 5.691273 -7.617439
v -4.576375 5.323884 -7.653313
v -4.969129 5.716639 -7.653313
vn -0.0000 1.0000 -0.0000
vn -0.0000 -1.0000 -0.0000
vn 1.0000 -0.0000 -0.0000
vn 0.9828 -0.0000 0.1845
vn -1.0000 -0.0000 -0.0000
vn -0.2856 -0.0000 0.9583
vn 0.9319 -0.0000 0.3626
vn -0.0000 -0.0000 -1.0000
vn -0.1830 0.1830 -0.9659
vn -0.5000 0.5000 -0.7071
vn -0.6830 0.6830 -0.2588
vn -0.7071 0.7071 -0.0000
vn -0.6830 0.6830 0.2588
vn -0.5000 0.5000 0.7071
vn -0.3536 0.3536 0.8660
vn -0.0000 -0.0000 1.0000
vn 0.1830 -0.1830 0.9659
vn 0.5000 -0.5000 0.7071
vn 0.6124 -0.6124 0.5000
vn 0.6830 -0.6830 0.2588
vn 0.6830 -0.6830 -0.2588
vn 0.6124 -0.6124 -0.5000
vn 0.7071 0.7071 -0.0000
vn 0.3536 -0.3536 -0.8660
vn -0.7071 -0.7071 -0.0000
vn -0.9828 -0.0000 0.1845
vn 0.2856 -0.0000 0.9583
vn -0.9319 -0.0000 0.3627
vn 0.1830 0.1830 -0.9659
vn 0.5000 0.5000 -0.7071
vn 0.6830 0.6830 -0.2588
vn 0.6830 0.6830 0.2588
vn 0.5000 0.5000 0.7071
vn 0.1830 0.1830 0.9659
vn -0.1830 -0.1830 0.9659
vn -0.5000 -0.5000 0.7071
vn -0.6124 -0.6124 0.5000
vn -0.6830 -0.6830 0.2588
vn -0.6830 -0.6830 -0.2588
vn -0.6124 -0.6124 -0.5000
vn -0.5000 -0.5000 -0.7071
vn -0.1830 -0.1830 -0.9659
vn 0.7071 -0.7071 -0.0000
vt 0.409411 0.909417
vt 0.412690 0.900990
vt 0.372102 0.900990
vt 0.400374 0.909417
vt 0.384418 0.934720
vt 0.384418 0.926281
vt 0.375382 0.926281
vt 0.375382 0.934720
vt 0.409411 0.917855
vt 0.400374 0.917855
vt 0.401603 0.900990
vt 0.409897 0.900990
vt 0.409896 0.891953
vt 0.401603 0.891953
vt 0.412690 0.926281
vt 0.412690 0.934720
vt 0.421727 0.934720
vt 0.421727 0.926281
vt 0.372102 0.891953
vt 0.412690 0.917855
vt 0.372102 0.917855
vt 0.418783 0.900990
vt 0.418783 0.891953
vt 0.231865 0.939292
vt 0.226510 0.939292
vt 0.226510 0.997915
vt 0.231865 0.997915
vt 0.221873 0.939292
vt 0.221873 0.997915
vt 0.265759 0.997915
vt 0.270396 0.997915
vt 0.270396 0.939292
vt 0.265759 0.939292
vt 0.275751 0.997915
vt 0.275751 0.939292
vt 0.280388 0.997915
vt 0.280388 0.939292
vt 0.251130 0.939292
vt 0.246493 0.939292
vt 0.246493 0.997915
vt 0.251130 0.997915
vt 0.241139 0.939292
vt 0.241139 0.997915
vt 0.236502 0.939292
vt 0.236502 0.997915
vt 0.255767 0.997915
vt 0.255768 0.939292
vt 0.261122 0.997915
vt 0.261122 0.939292
vt 0.300371 0.951960
vt 0.300371 0.946606
vt 0.297694 0.941969
vt 0.293056 0.939292
vt 0.287702 0.939292
vt 0.283065 0.941969
vt 0.280388 0.946606
vt 0.280388 0.951960
vt 0.283065 0.956598
vt 0.287702 0.959275
vt 0.293056 0.959275
vt 0.297694 0.956598
vt 0.297694 0.961952
vt 0.293057 0.959275
vt 0.283065 0.961952
vt 0.280388 0.966589
vt 0.280388 0.971944
vt 0.283065 0.976581
vt 0.287702 0.979258
vt 0.293057 0.979258
vt 0.297694 0.976581
vt 0.300371 0.971944
vt 0.300371 0.966589
s 1
usemtl cinema_ts
f 5/1/1 9/2/1 10/3/1 6/4/1
f 2/5/2 7/6/2 8/7/2 4/8/2
f 3/9/1 5/1/1 6/4/1 1/10/1
f 4/11/3 8/12/4 5/13/4 3/14/3
f 1/15/5 6/16/5 7/17/5 2/18/5
f 6/14/6 10/19/6 11/3/6 7/11/6
f 7/6/2 11/20/2 12/21/2 8/7/2
f 8/12/4 12/22/7 9/23/7 5/13/4
f 13/24/8 15/25/9 16/26/9 14/27/8
f 15/25/10 17/28/10 18/29/10 16/26/10
f 17/30/11 19/31/12 20/32/12 18/33/11
f 19/31/12 21/34/13 22/35/13 20/32/12
f 21/34/14 23/36/15 24/37/15 22/35/14
f 23/38/15 25/39/16 26/40/16 24/41/15
f 25/39/16 27/42/17 28/43/17 26/40/16
f 27/42/18 29/44/19 30/45/19 28/43/18
f 29/41/19 31/46/20 32/47/20 30/38/19
f 31/46/21 33/48/22 34/49/22 32/47/21
f 16/50/23 18/51/23 20/52/23 22/53/23 24/54/23 26/55/23 28/56/23 30/57/23 32/58/23 34/59/23 36/60/23 14/61/23
f 33/48/22 35/30/24 36/33/24 34/49/22
f 35/44/24 13/24/8 14/27/8 36/45/24
f 13/62/25 35/63/25 33/59/25 31/64/25 29/65/25 27/66/25 25/67/25 23/68/25 21/69/25 19/70/25 17/71/25 15/72/25
f 41/1/1 42/4/1 46/3/1 45/2/1
f 38/5/2 40/8/2 44/7/2 43/6/2
f 39/9/1 37/10/1 42/4/1 41/1/1
f 40/11/5 39/14/5 41/13/26 44/12/26
f 37/15/3 38/18/3 43/17/3 42/16/3
f 42/14/27 43/11/27 47/3/27 46/19/27
f 43/6/2 44/7/2 48/21/2 47/20/2
f 44/12/26 41/13/26 45/23/28 48/22/28
f 49/24/8 50/27/8 52/26/29 51/25/29
f 51/25/30 52/26/30 54/29/30 53/28/30
f 53/30/31 54/33/31 56/32/23 55/31/23
f 55/31/23 56/32/23 58/35/32 57/34/32
f 57/34/33 58/35/33 60/37/33 59/36/33
f 59/38/34 60/41/34 62/40/16 61/39/16
f 61/39/16 62/40/16 64/43/35 63/42/35
f 63/42/36 64/43/36 66/45/37 65/44/37
f 65/41/37 66/38/37 68/47/38 67/46/38
f 67/46/39 68/47/39 70/49/40 69/48/40
f 52/50/12 50/61/12 72/60/12 70/59/12 68/58/12 66/57/12 64/56/12 62/55/12 60/54/12 58/53/12 56/52/12 54/51/12
f 69/48/40 70/49/40 72/33/41 71/30/41
f 71/44/42 72/45/42 50/27/8 49/24/8
f 49/62/43 51/72/43 53/71/43 55/70/43 57/69/43 59/68/43 61/67/43 63/66/43 65/65/43 67/64/43 69/59/43 71/63/43
