# Blender 5.0.1
# www.blender.org
mtllib Luces1.mtl
o Luces1
v -5.702896 5.584531 -3.806974
v -5.702896 5.735701 -3.806974
v -5.702896 5.584531 -5.087358
v -5.702896 5.735701 -5.087358
v -5.504074 5.735701 -5.087358
v -5.550730 5.584531 -5.040700
v -5.550730 5.584531 -3.853631
v -5.504074 5.735701 -3.806974
v -5.656239 5.584531 -5.040700
v -5.656239 5.584531 -3.853631
v -5.504074 5.584531 -5.087358
v -5.504074 5.584531 -3.806974
v -5.702896 5.584532 4.695138
v -5.702896 5.735702 4.695138
v -5.702896 5.584532 3.414756
v -5.702896 5.735702 3.414756
v -5.504074 5.735702 3.414756
v -5.550730 5.584532 3.461411
v -5.550730 5.584532 4.648480
v -5.504074 5.735702 4.695138
v -5.656239 5.584532 3.461411
v -5.656239 5.584532 4.648480
v -5.504074 5.584532 3.414756
v -5.504074 5.584532 4.695138
v -5.702896 5.584532 0.553566
v -5.702896 5.735701 0.553566
v -5.702896 5.584532 -0.726816
v -5.702896 5.735701 -0.726816
v -5.504074 5.735701 -0.726816
v -5.550730 5.584532 -0.680160
v -5.550730 5.584532 0.506909
v -5.504074 5.735701 0.553566
v -5.656239 5.584532 -0.680160
v -5.656239 5.584532 0.506909
v -5.504074 5.584532 -0.726816
v -5.504074 5.584532 0.553566
vn -0.0000 -0.0000 -1.0000
vn -0.0000 -0.0000 1.0000
vn -0.0000 -1.0000 -0.0000
vn -0.0000 1.0000 -0.0000
vn 1.0000 -0.0000 -0.0000
vt 0.344961 0.846994
vt 0.344961 0.855895
vt 0.333254 0.855895
vt 0.333254 0.846994
vt 0.321547 0.855895
vt 0.321547 0.846994
vt 0.404904 0.974906
vt 0.404904 0.968694
vt 0.474802 0.968694
vt 0.474802 0.974906
vt 0.321547 0.888210
vt 0.321547 0.876503
vt 0.396939 0.876503
vt 0.396939 0.888210
vt 0.396939 0.855895
vt 0.396939 0.864796
vt 0.321547 0.864796
vt 0.324294 0.873756
vt 0.394191 0.873756
vt 0.324294 0.867543
vt 0.394191 0.867543
s 1
usemtl cinema_ts
f 3/1/1 4/2/1 5/3/1 11/4/1
f 12/4/2 8/3/2 2/5/2 1/6/2
f 9/7/3 6/8/3 7/9/3 10/10/3
f 5/11/4 4/12/4 2/13/4 8/14/4
f 12/5/5 11/15/5 5/16/5 8/17/5
f 9/18/3 10/19/3 1/13/3 3/12/3
f 6/20/3 9/18/3 3/12/3 11/17/3
f 7/21/3 6/20/3 11/17/3 12/16/3
f 10/19/3 7/21/3 12/16/3 1/13/3
f 15/1/1 16/2/1 17/3/1 23/4/1
f 24/4/2 20/3/2 14/5/2 13/6/2
f 21/7/3 18/8/3 19/9/3 22/10/3
f 17/11/4 16/12/4 14/13/4 20/14/4
f 24/5/5 23/15/5 17/16/5 20/17/5
f 21/18/3 22/19/3 13/13/3 15/12/3
f 18/20/3 21/18/3 15/12/3 23/17/3
f 19/21/3 18/20/3 23/17/3 24/16/3
f 22/19/3 19/21/3 24/16/3 13/13/3
f 27/1/1 28/2/1 29/3/1 35/4/1
f 36/4/2 32/3/2 26/5/2 25/6/2
f 33/7/3 30/8/3 31/9/3 34/10/3
f 29/11/4 28/12/4 26/13/4 32/14/4
f 36/5/5 35/15/5 29/16/5 32/17/5
f 33/18/3 34/19/3 25/13/3 27/12/3
f 30/20/3 33/18/3 27/12/3 35/17/3
f 31/21/3 30/20/3 35/17/3 36/16/3
f 34/19/3 31/21/3 36/16/3 25/13/3
