# Blender 5.0.1
mtllib steve_cabeza.mtl
g steve_cabeza_Malla

v -0.297859 -0.311256  1.065795
v -0.297859  0.284462  1.065795
v -0.297859 -0.311257  0.470077
v -0.297859  0.284462  0.470077
v  0.297859 -0.311256  1.065795
v  0.297859  0.284462  1.065795
v  0.297859 -0.311257  0.470077
v  0.297859  0.284462  0.470077

vn  0.0000  0.0000  1.0000
vn  0.0000  0.0000 -1.0000
vn  1.0000  0.0000  0.0000
vn -1.0000  0.0000  0.0000
vn  0.0000  1.0000  0.0000
vn  0.0000 -1.0000  0.0000

# Cara FRONTAL (+Z) — v1=bl, v5=br, v6=tr, v2=tl
vt 0.0 0.0
vt 1.0 0.0
vt 1.0 1.0
vt 0.0 1.0

# Cara TRASERA (-Z) — v7=bl, v3=br, v4=tr, v8=tl
vt 0.0 0.0
vt 1.0 0.0
vt 1.0 1.0
vt 0.0 1.0

# Cara DERECHA (+X) — v5=bl, v7=br, v8=tr, v6=tl
vt 0.0 0.0
vt 1.0 0.0
vt 1.0 1.0
vt 0.0 1.0

# Cara IZQUIERDA (-X) — v3=bl, v1=br, v2=tr, v4=tl
vt 0.0 0.0
vt 1.0 0.0
vt 1.0 1.0
vt 0.0 1.0

# Cara SUPERIOR (+Y) — v2=bl, v6=br, v8=tr, v4=tl
vt 0.0 0.0
vt 1.0 0.0
vt 1.0 1.0
vt 0.0 1.0

# Cara INFERIOR (-Y) — v5=bl, v1=br, v3=tr, v7=tl
vt 0.0 0.0
vt 1.0 0.0
vt 1.0 1.0
vt 0.0 1.0

usemtl Material.001

# FRONTAL (+Z)
f 1/1/1   5/2/1   6/3/1
f 1/1/1   6/3/1   2/4/1

# TRASERA (-Z)
f 7/5/2   3/6/2   4/7/2
f 7/5/2   4/7/2   8/8/2

# DERECHA (+X)
f 5/9/3   7/10/3  8/11/3
f 5/9/3   8/11/3  6/12/3

# IZQUIERDA (-X)
f 3/13/4  1/14/4  2/15/4
f 3/13/4  2/15/4  4/16/4

# SUPERIOR (+Y)
f 2/17/5  6/18/5  8/19/5
f 2/17/5  8/19/5  4/20/5

# INFERIOR (-Y)
f 5/21/6  1/22/6  3/23/6
f 5/21/6  3/23/6  7/24/6